<svg xmlns="http://www.w3.org/2000/svg" width="99" height="99" fill="none" viewBox="0 0 99 99"><rect width="98.408" height="98.408" fill="#0065c1" rx="11.577"/><path fill="#f0f4f7" d="M79.373 40.862a4.445 4.445 0 0 0-3.87-3.055l-16.009-1.292-6.181-14.948a4.439 4.439 0 0 0-8.214 0l-6.176 14.946-16.017 1.294a4.467 4.467 0 0 0-2.543 7.83l12.21 10.537-3.72 15.755a4.445 4.445 0 0 0 6.649 4.835l13.703-8.433 13.71 8.433a4.45 4.45 0 0 0 6.64-4.835l-3.733-15.757 12.21-10.537a4.46 4.46 0 0 0 1.341-4.773m-4.162 1.484L61.996 53.744a2.17 2.17 0 0 0-.695 2.146l4.038 17.04a.1.1 0 0 1-.046.131c-.049.038-.062.03-.103 0l-14.848-9.13a2.17 2.17 0 0 0-2.274 0L33.22 73.065c-.041.024-.052.032-.103 0a.1.1 0 0 1-.046-.13l4.037-17.041a2.17 2.17 0 0 0-.694-2.147L23.199 42.352c-.033-.027-.062-.052-.035-.136s.048-.073.09-.078l17.344-1.4a2.17 2.17 0 0 0 1.823-1.341l6.68-16.175c.022-.046.03-.068.096-.068.065 0 .073.022.095.068l6.696 16.175a2.17 2.17 0 0 0 1.832 1.335l17.344 1.4c.041 0 .066 0 .09.079.024.078 0 .108-.043.136"/></svg>